<svg width="209" height="32" fill="none" xmlns="http://www.w3.org/2000/svg">
  <path d="M2 2.364c5.942-.786 16.502.514 19.334 9.945m-8.167-4.24c-.912 1.171-1.918 2.925-2.61 4.973M4.556 5.399l3.333 3.978m11.333-5.705C21.185 2.625 26.09.992 30 2.835m-8.666 9.474c.628 2.09 1.497 4.24.986 7.537-.337 2.177-1.75 6.558-5.597 9.683a.917.917 0 0 1-1.196-.032c-2.093-1.89-5.07-5.511-5.694-9.651-.357-2.369.024-4.736.724-6.804m10.777-.733 6.11-6.91m-16.887 7.643 4.768 5.84a1 1 0 0 0 1.558-.011l1.84-2.322" stroke="#121212" stroke-width="2.5" stroke-linecap="round" stroke-linejoin="round"/>
  <path d="M46.41 23h-4.928V8.455h5.028c1.444 0 2.685.29 3.721.873a5.84 5.84 0 0 1 2.401 2.493c.559 1.084.838 2.382.838 3.892 0 1.515-.282 2.817-.845 3.906a5.841 5.841 0 0 1-2.422 2.507c-1.051.583-2.315.874-3.793.874Zm-2.293-2.28h2.166c1.013 0 1.858-.184 2.535-.554.677-.374 1.186-.93 1.527-1.669.341-.743.511-1.671.511-2.784 0-1.113-.17-2.036-.51-2.77-.342-.739-.846-1.29-1.514-1.655-.663-.369-1.486-.554-2.471-.554h-2.244v9.986ZM55.86 23V12.09h2.493v1.82h.114c.199-.63.54-1.116 1.022-1.457a2.815 2.815 0 0 1 1.67-.518c.141 0 .3.007.475.021.18.01.33.026.448.05v2.365a2.71 2.71 0 0 0-.519-.1 4.777 4.777 0 0 0-.675-.05 2.6 2.6 0 0 0-1.264.306c-.369.199-.66.476-.873.831a2.34 2.34 0 0 0-.32 1.229V23h-2.57Zm7.93 0V12.09h2.57V23h-2.57Zm1.292-12.457a1.5 1.5 0 0 1-1.05-.405 1.305 1.305 0 0 1-.441-.987c0-.389.147-.718.44-.988a1.486 1.486 0 0 1 1.051-.412c.412 0 .763.138 1.052.412.293.27.44.6.44.988 0 .383-.147.712-.44.987-.29.27-.64.405-1.052.405ZM78.75 12.09 74.864 23h-2.84l-3.886-10.91h2.742l2.507 8.105h.113l2.515-8.104h2.734Zm6.238 11.122c-1.094 0-2.039-.227-2.834-.682a4.617 4.617 0 0 1-1.826-1.946c-.426-.843-.639-1.835-.639-2.976 0-1.122.213-2.107.64-2.954.43-.852 1.032-1.515 1.803-1.989.772-.478 1.679-.717 2.72-.717.673 0 1.307.109 1.904.327a4.301 4.301 0 0 1 1.59.994c.465.45.83 1.023 1.095 1.719.265.69.397 1.515.397 2.471v.789h-8.941v-1.733h6.477a2.767 2.767 0 0 0-.32-1.314 2.324 2.324 0 0 0-.873-.916c-.37-.223-.8-.334-1.293-.334-.525 0-.987.127-1.385.383a2.644 2.644 0 0 0-.93.994 2.862 2.862 0 0 0-.334 1.343v1.513c0 .634.116 1.179.348 1.633.232.45.556.796.973 1.037.417.237.904.355 1.463.355.374 0 .713-.052 1.016-.156a2.24 2.24 0 0 0 .788-.476c.223-.208.39-.466.504-.774l2.4.27a3.742 3.742 0 0 1-.866 1.662c-.421.468-.96.833-1.619 1.093-.658.256-1.411.384-2.258.384Zm15.16-.212L96.043 8.455h2.834l2.621 10.688h.134l2.799-10.688h2.578l2.805 10.696h.128l2.621-10.696h2.834L111.292 23h-2.6l-2.912-10.206h-.113L102.748 23h-2.6Zm16.962 0V12.09h2.571V23h-2.571Zm1.293-12.457c-.407 0-.758-.135-1.051-.405a1.304 1.304 0 0 1-.441-.987c0-.389.147-.718.441-.988a1.485 1.485 0 0 1 1.051-.412c.412 0 .762.138 1.051.412.293.27.44.6.44.988 0 .383-.147.712-.44.987-.289.27-.639.405-1.051.405Zm12.544 4.431-2.344.256a1.874 1.874 0 0 0-.348-.668 1.725 1.725 0 0 0-.653-.504c-.275-.128-.611-.191-1.009-.191-.535 0-.984.115-1.349.347-.36.232-.537.533-.533.902a.948.948 0 0 0 .348.775c.242.199.64.362 1.193.49l1.861.397c1.032.223 1.8.576 2.301 1.059.507.483.763 1.115.767 1.896a2.966 2.966 0 0 1-.603 1.818c-.393.521-.94.928-1.641 1.222-.701.293-1.506.44-2.415.44-1.335 0-2.41-.28-3.224-.838-.814-.563-1.3-1.347-1.456-2.35l2.507-.242c.114.492.355.864.725 1.115.369.25.849.376 1.441.376.611 0 1.101-.125 1.47-.376.374-.251.562-.561.562-.93a.968.968 0 0 0-.363-.775c-.236-.203-.606-.36-1.108-.469l-1.86-.39c-1.047-.218-1.821-.585-2.323-1.101-.502-.52-.75-1.179-.746-1.975-.004-.672.178-1.254.547-1.747.374-.497.893-.88 1.556-1.15.667-.275 1.437-.412 2.308-.412 1.278 0 2.284.272 3.018.817.739.544 1.196 1.28 1.371 2.208Zm7.184 8.24c-1.094 0-2.038-.228-2.834-.683a4.62 4.62 0 0 1-1.825-1.946c-.426-.843-.639-1.835-.639-2.976 0-1.122.213-2.107.639-2.954.431-.852 1.032-1.515 1.804-1.989.772-.478 1.678-.717 2.72-.717.672 0 1.307.109 1.904.327a4.298 4.298 0 0 1 1.59.994c.464.45.829 1.023 1.094 1.719.265.69.398 1.515.398 2.471v.789h-8.942v-1.733h6.477a2.76 2.76 0 0 0-.319-1.314 2.33 2.33 0 0 0-.874-.916c-.369-.223-.8-.334-1.292-.334-.526 0-.988.127-1.385.383a2.646 2.646 0 0 0-.931.994 2.863 2.863 0 0 0-.334 1.343v1.513c0 .634.116 1.179.348 1.633.232.45.557.796.973 1.037.417.237.905.355 1.464.355.374 0 .712-.052 1.015-.156a2.26 2.26 0 0 0 .789-.476c.222-.208.39-.466.504-.774l2.4.27a3.738 3.738 0 0 1-.866 1.662c-.422.468-.961.833-1.619 1.093-.659.256-1.411.384-2.259.384Zm14.735-14.76V23h-2.634V8.455h2.634Zm5.311 8.154V23h-2.571V12.09h2.458v1.855h.127a3.116 3.116 0 0 1 1.201-1.456c.554-.36 1.238-.54 2.052-.54.753 0 1.409.16 1.968.483a3.25 3.25 0 0 1 1.306 1.399c.313.61.467 1.352.462 2.223V23h-2.571v-6.548c0-.73-.189-1.3-.568-1.712-.374-.412-.893-.618-1.556-.618-.449 0-.849.1-1.2.299a2.073 2.073 0 0 0-.817.845c-.194.369-.291.816-.291 1.342Zm18.239-1.634-2.344.256a1.874 1.874 0 0 0-.348-.668 1.733 1.733 0 0 0-.653-.504c-.275-.128-.611-.191-1.009-.191-.535 0-.985.115-1.349.347-.36.232-.538.533-.533.902a.942.942 0 0 0 .348.775c.242.199.639.362 1.193.49l1.861.397c1.032.223 1.799.576 2.301 1.059.507.483.762 1.115.767 1.896a2.972 2.972 0 0 1-.603 1.818c-.393.521-.94.928-1.641 1.222-.701.293-1.506.44-2.415.44-1.335 0-2.41-.28-3.224-.838-.815-.563-1.3-1.347-1.456-2.35l2.507-.242c.113.492.355.864.724 1.115.37.25.85.376 1.442.376.611 0 1.101-.125 1.47-.376.374-.251.561-.561.561-.93a.969.969 0 0 0-.362-.775c-.237-.203-.606-.36-1.108-.469l-1.861-.39c-1.046-.218-1.82-.585-2.322-1.101-.502-.52-.751-1.179-.746-1.975-.005-.672.178-1.254.547-1.747.374-.497.893-.88 1.555-1.15.668-.275 1.437-.412 2.309-.412 1.278 0 2.284.272 3.018.817.739.544 1.196 1.28 1.371 2.208Zm9.307 3.438V12.09h2.571V23h-2.493v-1.939h-.113a3.277 3.277 0 0 1-1.215 1.499c-.558.388-1.247.582-2.066.582-.715 0-1.347-.159-1.897-.476-.544-.322-.97-.788-1.278-1.399-.308-.616-.462-1.359-.462-2.23V12.09h2.571v6.548c0 .692.19 1.24.568 1.648.379.407.876.61 1.492.61.379 0 .746-.092 1.101-.276.355-.185.646-.46.873-.824.232-.37.348-.831.348-1.385ZM190.938 23V12.09h2.493v1.82h.114c.199-.63.54-1.116 1.022-1.457a2.819 2.819 0 0 1 1.67-.518 6 6 0 0 1 .475.021c.18.01.329.026.448.05v2.365a2.715 2.715 0 0 0-.519-.1 4.776 4.776 0 0 0-.674-.05c-.469 0-.891.102-1.265.306-.369.199-.66.476-.873.831-.213.355-.32.765-.32 1.229V23h-2.571Zm12.31.213c-1.094 0-2.038-.227-2.834-.682a4.62 4.62 0 0 1-1.825-1.946c-.426-.843-.639-1.835-.639-2.976 0-1.122.213-2.107.639-2.954.431-.852 1.032-1.515 1.804-1.989.772-.478 1.679-.717 2.72-.717a5.51 5.51 0 0 1 1.904.327 4.31 4.31 0 0 1 1.591.994c.464.45.828 1.023 1.093 1.719.266.69.398 1.515.398 2.471v.789h-8.942v-1.733h6.478a2.773 2.773 0 0 0-.32-1.314 2.322 2.322 0 0 0-.874-.916c-.369-.223-.8-.334-1.292-.334-.526 0-.987.127-1.385.383a2.646 2.646 0 0 0-.931.994 2.862 2.862 0 0 0-.333 1.343v1.513c0 .634.116 1.179.348 1.633.232.45.556.796.973 1.037.416.237.904.355 1.463.355.374 0 .712-.052 1.015-.156a2.26 2.26 0 0 0 .789-.476c.222-.208.39-.466.504-.774l2.401.27a3.75 3.75 0 0 1-.867 1.662c-.421.468-.961.833-1.619 1.093-.658.256-1.411.384-2.259.384Z" fill="#121212"/>
</svg>
