<svg width="128" height="128" fill="none" xmlns="http://www.w3.org/2000/svg">
  <path d="M7.023 66.912a5.564 5.564 0 0 0 0 7.172l21.79 25.851c2.229 2.644 6.302 2.637 8.521-.014a5.564 5.564 0 0 0-.012-7.157L15.53 66.912c-2.223-2.637-6.285-2.637-8.508 0Zm113.944-38.837c-2.23-2.646-6.307-2.645-8.537.002L68.313 80.463c-3.198 3.798-9.046 3.796-12.242-.004L44.637 66.862a5.58 5.58 0 1 0-8.537 7.187l19.973 23.695c3.197 3.791 9.037 3.791 12.234 0l52.66-62.474a5.582 5.582 0 0 0 0-7.195Zm-29.078 7.161a5.564 5.564 0 0 0 .012-7.157c-2.218-2.65-6.292-2.658-8.52-.014L57.92 58.269a5.564 5.564 0 0 0 .012 7.186c2.227 2.624 6.278 2.617 8.496-.015l25.46-30.204Z" fill="#121212"/>
</svg>
