<svg width="128" height="128" fill="none" xmlns="http://www.w3.org/2000/svg">
  <path d="M88.722 7.234a4.483 4.483 0 0 0-8.187 3.319l.409 1.887c.417 1.926-.36 3.869-1.717 5.297-1.36 1.43-3.337 2.23-5.261 1.788l-2.006-.46a4.475 4.475 0 0 0-3.399 8.14l1.573.998c1.694 1.075 2.534 3.063 2.545 5.07.01 1.977-.829 3.911-2.5 4.971l-1.673 1.063a4.478 4.478 0 0 0 3.333 8.16l2.02-.43c1.904-.406 3.82.353 5.226 1.7 1.44 1.38 2.235 3.39 1.76 5.326l-.48 1.952a4.451 4.451 0 0 0 8.068 3.466l1.166-1.818c1.067-1.662 3.032-2.49 5.007-2.487 2.007.003 3.963.86 5.024 2.563l1.089 1.75a4.423 4.423 0 0 0 8.066-3.328l-.453-1.973c-.442-1.928.322-3.89 1.686-5.322 1.355-1.422 3.32-2.217 5.236-1.784l2.184.493a4.463 4.463 0 0 0 3.342-8.143l-1.724-1.074c-1.667-1.038-2.501-2.99-2.508-4.954-.007-1.932.806-3.81 2.432-4.853l1.855-1.19a4.487 4.487 0 0 0-3.426-8.15l-1.968.453c-1.935.444-3.897-.34-5.275-1.769-1.356-1.405-2.131-3.368-1.688-5.27l.442-1.894a4.467 4.467 0 0 0-8.121-3.409l-1.011 1.593c-1.07 1.685-3.054 2.522-5.05 2.53-1.985.01-3.919-.843-4.968-2.528l-1.048-1.683Zm5.967 15.63c1.36 0 2.72.308 4.063.87 5.351 2.25 7.89 8.289 5.659 13.64-2.231 5.35-8.434 7.89-13.785 5.659-5.35-2.231-7.89-8.416-5.659-13.785 1.687-4.009 5.623-6.367 9.722-6.385ZM43.353 45.208a5.836 5.836 0 0 0-5.76 4.9l-.404 2.484c-.416 2.561-2.383 4.571-4.784 5.554-2.37.97-5.083.904-7.169-.58l-2.113-1.506a5.852 5.852 0 0 0-8.196 8.113l1.425 2.044c1.49 2.138 1.541 4.902.585 7.326-.968 2.452-3.014 4.442-5.616 4.865l-2.421.393a5.836 5.836 0 0 0-.07 11.509l2.614.457c2.53.443 4.499 2.396 5.46 4.778.97 2.4.923 5.154-.579 7.263l-1.463 2.054a5.872 5.872 0 0 0 8.108 8.248l2.244-1.54c2.104-1.445 4.813-1.475 7.176-.511 2.416.986 4.385 3.003 4.803 5.58l.4 2.46a5.836 5.836 0 0 0 11.508.07l.453-2.585c.446-2.551 2.407-4.553 4.786-5.576 2.395-1.031 5.161-.988 7.296.509l2.212 1.552a5.813 5.813 0 0 0 8.04-8.178l-1.531-2.106c-1.523-2.094-1.601-4.844-.628-7.244.964-2.377 2.941-4.327 5.469-4.764l2.761-.477a5.824 5.824 0 0 0-.069-11.489l-2.621-.42c-2.566-.412-4.583-2.37-5.564-4.777-.965-2.37-.914-5.087.556-7.182l1.6-2.281a5.813 5.813 0 0 0-8.178-8.04l-2.075 1.509c-2.112 1.536-4.893 1.601-7.291.566-2.366-1.022-4.316-3.008-4.76-5.546l-.456-2.602a5.836 5.836 0 0 0-5.748-4.83Zm.115 25.683c7.6 0 13.64 6.04 13.64 13.64 0 7.6-6.04 13.785-13.64 13.785-7.6 0-13.785-6.185-13.785-13.785 0-7.6 6.185-13.64 13.785-13.64Z" fill="#121212"/>
</svg>
