<svg width="128" height="128" viewBox="0 0 128 128" fill="none" xmlns="http://www.w3.org/2000/svg">
<path d="M7.02266 66.9123C5.27638 68.984 5.27638 72.0124 7.02266 74.0841L28.8137 99.9354C31.0417 102.579 35.1154 102.572 37.3343 99.9206C39.0687 97.8484 39.0634 94.8297 37.3218 92.7636L15.5307 66.9123C13.3078 64.2751 9.24562 64.2751 7.02266 66.9123ZM120.967 28.0752C118.737 25.4286 114.66 25.4296 112.43 28.0772L68.3134 80.4633C65.1154 84.2608 59.2668 84.2587 56.0714 80.4591L44.6368 66.8618C42.419 64.2245 38.3645 64.2081 36.1254 66.8273C34.3502 68.9038 34.3395 71.9603 36.1003 74.0491L56.0731 97.7435C59.2695 101.535 65.1103 101.535 68.3067 97.7435L120.967 35.2704C122.719 33.1919 122.719 30.1536 120.967 28.0752ZM91.8889 35.2364C93.6305 33.1703 93.6358 30.1516 91.9014 28.0794C89.6826 25.4285 85.6088 25.4214 83.3808 28.0646L57.9208 58.2686C56.1698 60.3459 56.1751 63.384 57.9333 65.4552C60.1604 68.0787 64.211 68.0716 66.429 65.4404L91.8889 35.2364Z" fill="#121212"></path>
</svg>
