<svg width="128" height="128" viewBox="0 0 128 128" fill="none" xmlns="http://www.w3.org/2000/svg">
<path d="M88.7222 7.234C87.5611 5.36916 85.2198 4.62034 83.192 5.46525C81.1944 6.29758 80.0765 8.43805 80.5347 10.553L80.9436 12.4405C81.3609 14.3663 80.5848 16.3089 79.2269 17.7368C77.8666 19.1674 75.8898 19.9665 73.9657 19.5249L71.9604 19.0646C69.8349 18.5768 67.6672 19.6921 66.8284 21.7052C65.9906 23.7159 66.7222 26.0378 68.5614 27.205L70.134 28.203C71.8276 29.2777 72.6683 31.2663 72.6791 33.2721C72.6898 35.2502 71.85 37.1845 70.1798 38.2444L68.506 39.3066C66.6912 40.4583 65.9507 42.7371 66.7418 44.7356C67.5463 46.7681 69.7008 47.9227 71.8388 47.4671L73.8585 47.0367C75.7631 46.6308 77.6783 47.3904 79.0848 48.7371C80.525 50.1162 81.3204 52.127 80.8443 54.0633L80.3643 56.0152C79.8402 58.1469 80.9483 60.3423 82.9746 61.1866C84.9668 62.0167 87.2675 61.2979 88.4328 59.4814L89.5991 57.6634C90.6656 56.0009 92.631 55.1731 94.6062 55.1759C96.6127 55.1787 98.5694 56.0358 99.6299 57.7391L100.719 59.4883C101.849 61.3028 104.114 62.0498 106.102 61.2631C108.134 60.4588 109.274 58.291 108.785 56.161L108.332 54.1876C107.89 52.2603 108.654 50.2981 110.018 48.8663C111.373 47.4437 113.338 46.6491 115.254 47.0819L117.438 47.5749C119.554 48.0527 121.707 46.9401 122.541 44.9377C123.382 42.9188 122.637 40.5878 120.78 39.4317L119.056 38.3584C117.389 37.3203 116.555 35.3681 116.548 33.404C116.541 31.4723 117.354 29.5938 118.98 28.5507L120.835 27.3606C122.666 26.186 123.39 23.867 122.554 21.859C121.713 19.8409 119.54 18.7228 117.409 19.2118L115.441 19.6635C113.506 20.1077 111.544 19.324 110.166 17.8953C108.81 16.4902 108.035 14.5265 108.478 12.6249L108.92 10.7307C109.416 8.60488 108.303 6.43194 106.288 5.59235C104.281 4.7561 101.964 5.4864 100.799 7.32219L99.7877 8.91543C98.7186 10.6 96.7337 11.4365 94.7386 11.4456C92.7532 11.4547 90.8193 10.6021 89.7699 8.9167L88.7222 7.234ZM94.6892 22.8634C96.0496 22.8634 97.4099 23.1717 98.7521 23.734C104.103 25.9831 106.642 32.023 104.411 37.3736C102.18 42.7243 95.977 45.2636 90.6264 43.0326C85.2757 40.8017 82.7364 34.6167 84.9674 29.2479C86.6542 25.2394 90.5901 22.8815 94.6892 22.8634ZM43.3533 45.2092C40.4916 45.2092 38.0522 47.2842 37.5932 50.1088L37.1894 52.5933C36.7733 55.1544 34.8059 57.1644 32.4047 58.1473C30.035 59.1174 27.3219 59.0515 25.2361 57.5661L23.123 56.0613C20.7953 54.4038 17.6109 54.6696 15.5903 56.6902C13.5856 58.695 13.3062 61.8485 14.9273 64.1744L16.3518 66.2182C17.8415 68.3556 17.8934 71.1204 16.9367 73.5437C15.9687 75.996 13.923 77.9861 11.3207 78.4089L8.89963 78.8024C6.07503 79.2614 4 81.7008 4 84.5624C4 87.3973 6.03729 89.8221 8.8297 90.3107L11.4444 90.7683C13.9744 91.2111 15.943 93.1641 16.9044 95.5458C17.8734 97.9465 17.8268 100.7 16.3251 102.809L14.8624 104.863C13.1989 107.199 13.4657 110.394 15.4935 112.422C17.4944 114.423 20.6376 114.713 22.9703 113.111L25.2138 111.571C27.3175 110.126 30.027 110.096 32.3897 111.06C34.8062 112.046 36.7747 114.063 37.1933 116.64L37.5932 119.1C38.0522 121.925 40.4916 124 43.3533 124C46.1881 124 48.6129 121.963 49.1015 119.17L49.5539 116.585C50.0004 114.034 51.9605 112.032 54.34 111.009C56.735 109.978 59.5014 110.021 61.6357 111.518L63.8483 113.07C66.1594 114.692 69.3013 114.418 71.2976 112.422C73.3203 110.399 73.5709 107.205 71.8884 104.892L70.3567 102.786C68.8337 100.692 68.756 97.9417 69.7292 95.5422C70.6934 93.1652 72.6702 91.2148 75.1978 90.7779L77.959 90.3007C80.7512 89.8181 82.7908 87.3957 82.7908 84.5621C82.7908 81.702 80.7139 79.2652 77.89 78.812L75.2689 78.3913C72.703 77.9795 70.6859 76.0214 69.7052 73.6147C68.7398 71.2455 68.7914 68.5278 70.2607 66.4334L71.8612 64.1517C73.4825 61.8406 73.209 58.6987 71.2127 56.7024C69.1899 54.6797 65.9962 54.4291 63.6827 56.1116L61.6078 57.6206C59.4956 59.1568 56.7147 59.2223 54.317 58.1868C51.9512 57.1651 50.0011 55.1792 49.5569 52.6408L49.1015 50.0389C48.6129 47.2465 46.1881 45.2092 43.3533 45.2092ZM43.468 70.8924C51.0677 70.8924 57.1076 76.9323 57.1076 84.532C57.1076 92.1318 51.0677 98.3168 43.468 98.3168C35.8682 98.3168 29.6832 92.1318 29.6832 84.532C29.6832 76.9323 35.8682 70.8924 43.468 70.8924Z" fill="#121212"></path>
</svg>
