<svg width="209" height="32" viewBox="0 0 209 32" fill="none" xmlns="http://www.w3.org/2000/svg">
<path d="M2 2.36372C7.94195 1.57826 18.5019 2.87822 21.3345 12.3089M13.1667 8.06875C12.2547 9.24041 11.2495 10.9945 10.5569 13.0417M4.55556 5.39931L7.88889 9.3773M19.2222 3.67203C21.1852 2.62519 26.0889 0.992125 30 2.83456M21.3345 12.3089C21.9624 14.3997 22.8307 16.5486 22.3203 19.8459C21.9832 22.0234 20.5701 26.404 16.723 29.5291C16.3703 29.8157 15.8645 29.8021 15.5272 29.4975C13.4343 27.6068 10.4571 23.9859 9.83333 19.8459C9.47645 17.4775 9.85713 15.11 10.5569 13.0417M21.3345 12.3089L27.4444 5.39931M10.5569 13.0417L15.3246 18.8824C15.7286 19.3773 16.4867 19.3717 16.8832 18.8709L18.7222 16.5486" stroke="#121212" stroke-width="2.5" stroke-linecap="round" stroke-linejoin="round"></path>
<path d="M46.4105 23H41.4815V8.45455H46.5099C47.9541 8.45455 49.1946 8.74574 50.2315 9.32812C51.2732 9.90578 52.0734 10.7367 52.6321 11.821C53.1908 12.9053 53.4702 14.2027 53.4702 15.7131C53.4702 17.2282 53.1884 18.5303 52.625 19.6193C52.0663 20.7083 51.259 21.544 50.2031 22.1264C49.152 22.7088 47.8878 23 46.4105 23ZM44.1165 20.7202H46.2827C47.2959 20.7202 48.1411 20.5355 48.8182 20.1662C49.4953 19.7921 50.0043 19.2358 50.3452 18.4972C50.6861 17.7538 50.8565 16.8258 50.8565 15.7131C50.8565 14.6004 50.6861 13.6771 50.3452 12.9432C50.0043 12.2045 49.5 11.6529 48.8324 11.2884C48.1695 10.919 47.3456 10.7344 46.3608 10.7344H44.1165V20.7202ZM55.8601 23V12.0909H58.353V13.9091H58.4666C58.6655 13.2794 59.0064 12.794 59.4893 12.4531C59.977 12.1075 60.5334 11.9347 61.1584 11.9347C61.3004 11.9347 61.459 11.9418 61.6342 11.956C61.8142 11.9654 61.9633 11.982 62.0817 12.0057V14.3707C61.9728 14.3329 61.8 14.2997 61.5632 14.2713C61.3312 14.2382 61.1063 14.2216 60.8885 14.2216C60.4197 14.2216 59.9983 14.3234 59.6243 14.527C59.255 14.7259 58.9638 15.0028 58.7507 15.358C58.5376 15.7131 58.4311 16.1226 58.4311 16.5866V23H55.8601ZM63.7898 23V12.0909H66.3608V23H63.7898ZM65.0824 10.5426C64.6752 10.5426 64.3248 10.4077 64.0312 10.1378C63.7377 9.86316 63.5909 9.53409 63.5909 9.15057C63.5909 8.76231 63.7377 8.43324 64.0312 8.16335C64.3248 7.88873 64.6752 7.75142 65.0824 7.75142C65.4943 7.75142 65.8447 7.88873 66.1335 8.16335C66.4271 8.43324 66.5739 8.76231 66.5739 9.15057C66.5739 9.53409 66.4271 9.86316 66.1335 10.1378C65.8447 10.4077 65.4943 10.5426 65.0824 10.5426ZM78.7489 12.0909L74.864 23H72.0231L68.1381 12.0909H70.8796L73.3867 20.1946H73.5004L76.0146 12.0909H78.7489ZM84.9865 23.2131C83.8928 23.2131 82.9482 22.9858 82.1527 22.5312C81.362 22.072 80.7536 21.4233 80.3274 20.5852C79.9013 19.7424 79.6882 18.7505 79.6882 17.6094C79.6882 16.4872 79.9013 15.5024 80.3274 14.6548C80.7583 13.8026 81.3596 13.1397 82.1314 12.6662C82.9032 12.188 83.8099 11.9489 84.8516 11.9489C85.5239 11.9489 86.1584 12.0578 86.755 12.2756C87.3563 12.4886 87.8866 12.8201 88.3459 13.2699C88.8099 13.7197 89.1745 14.2926 89.4396 14.9886C89.7048 15.6799 89.8374 16.5038 89.8374 17.4602V18.2486H80.8956V16.5156H87.3729C87.3681 16.0232 87.2616 15.5852 87.0533 15.2017C86.8449 14.8134 86.5537 14.508 86.1797 14.2855C85.8104 14.063 85.3795 13.9517 84.8871 13.9517C84.3615 13.9517 83.8999 14.0795 83.5021 14.3352C83.1044 14.5862 82.7943 14.9176 82.5717 15.3295C82.3539 15.7367 82.2427 16.1842 82.2379 16.6719V18.1847C82.2379 18.8191 82.3539 19.3636 82.5859 19.8182C82.8179 20.268 83.1423 20.6136 83.5589 20.8551C83.9756 21.0919 84.4633 21.2102 85.022 21.2102C85.3961 21.2102 85.7346 21.1581 86.0376 21.054C86.3407 20.9451 86.6035 20.7865 86.826 20.5781C87.0485 20.3698 87.2166 20.1117 87.3303 19.804L89.7308 20.0739C89.5793 20.7083 89.2905 21.2623 88.8643 21.7358C88.4429 22.2045 87.9032 22.5691 87.245 22.8295C86.5869 23.0852 85.834 23.2131 84.9865 23.2131ZM100.148 23L96.043 8.45455H98.8768L101.498 19.1435H101.632L104.431 8.45455H107.009L109.814 19.1506H109.942L112.563 8.45455H115.397L111.292 23H108.692L105.78 12.794H105.667L102.748 23H100.148ZM117.11 23V12.0909H119.681V23H117.11ZM118.403 10.5426C117.996 10.5426 117.645 10.4077 117.352 10.1378C117.058 9.86316 116.911 9.53409 116.911 9.15057C116.911 8.76231 117.058 8.43324 117.352 8.16335C117.645 7.88873 117.996 7.75142 118.403 7.75142C118.815 7.75142 119.165 7.88873 119.454 8.16335C119.747 8.43324 119.894 8.76231 119.894 9.15057C119.894 9.53409 119.747 9.86316 119.454 10.1378C119.165 10.4077 118.815 10.5426 118.403 10.5426ZM130.947 14.9744L128.603 15.2301C128.537 14.9934 128.421 14.7708 128.255 14.5625C128.094 14.3542 127.877 14.1861 127.602 14.0582C127.327 13.9304 126.991 13.8665 126.593 13.8665C126.058 13.8665 125.609 13.9825 125.244 14.2145C124.884 14.4465 124.707 14.7472 124.711 15.1165C124.707 15.4337 124.823 15.6918 125.059 15.8906C125.301 16.0895 125.699 16.2528 126.252 16.3807L128.113 16.7784C129.145 17.0009 129.913 17.3537 130.414 17.8366C130.921 18.3196 131.177 18.9517 131.181 19.733C131.177 20.4195 130.975 21.0256 130.578 21.5511C130.185 22.072 129.638 22.4792 128.937 22.7727C128.236 23.0663 127.431 23.2131 126.522 23.2131C125.187 23.2131 124.112 22.9337 123.298 22.375C122.484 21.8116 121.998 21.0279 121.842 20.0241L124.349 19.7827C124.463 20.2751 124.704 20.6468 125.074 20.8977C125.443 21.1487 125.923 21.2741 126.515 21.2741C127.126 21.2741 127.616 21.1487 127.985 20.8977C128.359 20.6468 128.547 20.3366 128.547 19.9673C128.547 19.6548 128.426 19.3968 128.184 19.1932C127.948 18.9896 127.578 18.8333 127.076 18.7244L125.216 18.3338C124.169 18.116 123.395 17.7491 122.893 17.233C122.391 16.7121 122.143 16.054 122.147 15.2585C122.143 14.5862 122.325 14.0038 122.694 13.5114C123.068 13.0142 123.587 12.6307 124.25 12.3608C124.917 12.0862 125.687 11.9489 126.558 11.9489C127.836 11.9489 128.842 12.2211 129.576 12.7656C130.315 13.3101 130.772 14.0464 130.947 14.9744ZM138.131 23.2131C137.037 23.2131 136.093 22.9858 135.297 22.5312C134.507 22.072 133.898 21.4233 133.472 20.5852C133.046 19.7424 132.833 18.7505 132.833 17.6094C132.833 16.4872 133.046 15.5024 133.472 14.6548C133.903 13.8026 134.504 13.1397 135.276 12.6662C136.048 12.188 136.954 11.9489 137.996 11.9489C138.668 11.9489 139.303 12.0578 139.9 12.2756C140.501 12.4886 141.031 12.8201 141.49 13.2699C141.954 13.7197 142.319 14.2926 142.584 14.9886C142.849 15.6799 142.982 16.5038 142.982 17.4602V18.2486H134.04V16.5156H140.517C140.513 16.0232 140.406 15.5852 140.198 15.2017C139.989 14.8134 139.698 14.508 139.324 14.2855C138.955 14.063 138.524 13.9517 138.032 13.9517C137.506 13.9517 137.044 14.0795 136.647 14.3352C136.249 14.5862 135.939 14.9176 135.716 15.3295C135.498 15.7367 135.387 16.1842 135.382 16.6719V18.1847C135.382 18.8191 135.498 19.3636 135.73 19.8182C135.962 20.268 136.287 20.6136 136.703 20.8551C137.12 21.0919 137.608 21.2102 138.167 21.2102C138.541 21.2102 138.879 21.1581 139.182 21.054C139.485 20.9451 139.748 20.7865 139.971 20.5781C140.193 20.3698 140.361 20.1117 140.475 19.804L142.875 20.0739C142.724 20.7083 142.435 21.2623 142.009 21.7358C141.587 22.2045 141.048 22.5691 140.39 22.8295C139.731 23.0852 138.979 23.2131 138.131 23.2131ZM152.866 8.45455V23H150.232V8.45455H152.866ZM158.177 16.608V23H155.606V12.0909H158.064V13.9446H158.191C158.442 13.3338 158.842 12.8485 159.392 12.4886C159.946 12.1288 160.63 11.9489 161.444 11.9489C162.197 11.9489 162.853 12.1098 163.412 12.4318C163.975 12.7538 164.411 13.2202 164.718 13.831C165.031 14.4418 165.185 15.1828 165.18 16.054V23H162.609V16.4517C162.609 15.7225 162.42 15.152 162.041 14.7401C161.667 14.3281 161.148 14.1222 160.485 14.1222C160.036 14.1222 159.636 14.2216 159.285 14.4205C158.94 14.6146 158.667 14.8963 158.468 15.2656C158.274 15.6349 158.177 16.0824 158.177 16.608ZM176.416 14.9744L174.072 15.2301C174.006 14.9934 173.89 14.7708 173.724 14.5625C173.563 14.3542 173.345 14.1861 173.071 14.0582C172.796 13.9304 172.46 13.8665 172.062 13.8665C171.527 13.8665 171.077 13.9825 170.713 14.2145C170.353 14.4465 170.175 14.7472 170.18 15.1165C170.175 15.4337 170.291 15.6918 170.528 15.8906C170.77 16.0895 171.167 16.2528 171.721 16.3807L173.582 16.7784C174.614 17.0009 175.381 17.3537 175.883 17.8366C176.39 18.3196 176.645 18.9517 176.65 19.733C176.645 20.4195 176.444 21.0256 176.047 21.5511C175.654 22.072 175.107 22.4792 174.406 22.7727C173.705 23.0663 172.9 23.2131 171.991 23.2131C170.656 23.2131 169.581 22.9337 168.767 22.375C167.952 21.8116 167.467 21.0279 167.311 20.0241L169.818 19.7827C169.931 20.2751 170.173 20.6468 170.542 20.8977C170.912 21.1487 171.392 21.2741 171.984 21.2741C172.595 21.2741 173.085 21.1487 173.454 20.8977C173.828 20.6468 174.015 20.3366 174.015 19.9673C174.015 19.6548 173.895 19.3968 173.653 19.1932C173.416 18.9896 173.047 18.8333 172.545 18.7244L170.684 18.3338C169.638 18.116 168.864 17.7491 168.362 17.233C167.86 16.7121 167.611 16.054 167.616 15.2585C167.611 14.5862 167.794 14.0038 168.163 13.5114C168.537 13.0142 169.056 12.6307 169.718 12.3608C170.386 12.0862 171.155 11.9489 172.027 11.9489C173.305 11.9489 174.311 12.2211 175.045 12.7656C175.784 13.3101 176.241 14.0464 176.416 14.9744ZM185.723 18.4119V12.0909H188.294V23H185.801V21.0611H185.688C185.442 21.6719 185.037 22.1714 184.473 22.5597C183.915 22.9479 183.226 23.142 182.407 23.142C181.692 23.142 181.06 22.9834 180.51 22.6662C179.966 22.3442 179.54 21.8778 179.232 21.267C178.924 20.6515 178.77 19.9081 178.77 19.0369V12.0909H181.341V18.6392C181.341 19.3305 181.531 19.8797 181.909 20.2869C182.288 20.6941 182.785 20.8977 183.401 20.8977C183.78 20.8977 184.147 20.8054 184.502 20.6207C184.857 20.4361 185.148 20.1615 185.375 19.7969C185.607 19.4276 185.723 18.9659 185.723 18.4119ZM190.938 23V12.0909H193.431V13.9091H193.545C193.744 13.2794 194.085 12.794 194.567 12.4531C195.055 12.1075 195.612 11.9347 196.237 11.9347C196.379 11.9347 196.537 11.9418 196.712 11.956C196.892 11.9654 197.041 11.982 197.16 12.0057V14.3707C197.051 14.3329 196.878 14.2997 196.641 14.2713C196.409 14.2382 196.184 14.2216 195.967 14.2216C195.498 14.2216 195.076 14.3234 194.702 14.527C194.333 14.7259 194.042 15.0028 193.829 15.358C193.616 15.7131 193.509 16.1226 193.509 16.5866V23H190.938ZM203.248 23.2131C202.154 23.2131 201.21 22.9858 200.414 22.5312C199.624 22.072 199.015 21.4233 198.589 20.5852C198.163 19.7424 197.95 18.7505 197.95 17.6094C197.95 16.4872 198.163 15.5024 198.589 14.6548C199.02 13.8026 199.621 13.1397 200.393 12.6662C201.165 12.188 202.072 11.9489 203.113 11.9489C203.786 11.9489 204.42 12.0578 205.017 12.2756C205.618 12.4886 206.148 12.8201 206.608 13.2699C207.072 13.7197 207.436 14.2926 207.701 14.9886C207.967 15.6799 208.099 16.5038 208.099 17.4602V18.2486H199.157V16.5156H205.635C205.63 16.0232 205.523 15.5852 205.315 15.2017C205.107 14.8134 204.815 14.508 204.441 14.2855C204.072 14.063 203.641 13.9517 203.149 13.9517C202.623 13.9517 202.162 14.0795 201.764 14.3352C201.366 14.5862 201.056 14.9176 200.833 15.3295C200.616 15.7367 200.504 16.1842 200.5 16.6719V18.1847C200.5 18.8191 200.616 19.3636 200.848 19.8182C201.08 20.268 201.404 20.6136 201.821 20.8551C202.237 21.0919 202.725 21.2102 203.284 21.2102C203.658 21.2102 203.996 21.1581 204.299 21.054C204.602 20.9451 204.865 20.7865 205.088 20.5781C205.31 20.3698 205.478 20.1117 205.592 19.804L207.993 20.0739C207.841 20.7083 207.552 21.2623 207.126 21.7358C206.705 22.2045 206.165 22.5691 205.507 22.8295C204.849 23.0852 204.096 23.2131 203.248 23.2131Z" fill="#121212"></path>
</svg>
