<svg width="136" height="24" viewBox="0 0 136 24" fill="none" xmlns="http://www.w3.org/2000/svg">
<path d="M17.5598 21.0002C17.3998 21.0008 17.2421 20.9631 17.0998 20.8902L11.9998 18.2202L6.89976 20.8902C6.73416 20.9773 6.54744 21.0162 6.36084 21.0024C6.17424 20.9887 5.99524 20.9228 5.84419 20.8124C5.69314 20.702 5.5761 20.5514 5.50638 20.3778C5.43665 20.2041 5.41704 20.0144 5.44976 19.8302L6.44976 14.2002L2.32976 10.2002C2.20122 10.0719 2.11003 9.91107 2.06599 9.7349C2.02195 9.55872 2.02671 9.37388 2.07976 9.2002C2.13772 9.02248 2.24434 8.86456 2.38751 8.74436C2.53069 8.62417 2.70469 8.54651 2.88976 8.5202L8.58976 7.6902L11.0998 2.5602C11.1816 2.39113 11.3095 2.24855 11.4687 2.14878C11.6278 2.04901 11.8119 1.99609 11.9998 1.99609C12.1876 1.99609 12.3717 2.04901 12.5309 2.14878C12.69 2.24855 12.8179 2.39113 12.8998 2.5602L15.4398 7.6802L21.1398 8.5102C21.3248 8.53651 21.4988 8.61417 21.642 8.73436C21.7852 8.85456 21.8918 9.01248 21.9498 9.1902C22.0028 9.36388 22.0076 9.54872 21.9635 9.7249C21.9195 9.90107 21.8283 10.0619 21.6998 10.1902L17.5798 14.1902L18.5798 19.8202C18.6155 20.0077 18.5968 20.2015 18.5259 20.3787C18.455 20.5559 18.3349 20.7091 18.1798 20.8202C17.9987 20.9471 17.7806 21.0104 17.5598 21.0002Z" fill="#FFC042"></path>
<path d="M45.5598 21.0002C45.3998 21.0008 45.2421 20.9631 45.0998 20.8902L39.9998 18.2202L34.8998 20.8902C34.7342 20.9773 34.5474 21.0162 34.3608 21.0024C34.1742 20.9887 33.9952 20.9228 33.8442 20.8124C33.6931 20.702 33.5761 20.5514 33.5064 20.3778C33.4367 20.2041 33.417 20.0144 33.4498 19.8302L34.4498 14.2002L30.3298 10.2002C30.2012 10.0719 30.11 9.91107 30.066 9.7349C30.0219 9.55872 30.0267 9.37388 30.0798 9.2002C30.1377 9.02248 30.2443 8.86456 30.3875 8.74436C30.5307 8.62417 30.7047 8.54651 30.8898 8.5202L36.5898 7.6902L39.0998 2.5602C39.1816 2.39113 39.3095 2.24855 39.4687 2.14878C39.6278 2.04901 39.8119 1.99609 39.9998 1.99609C40.1876 1.99609 40.3717 2.04901 40.5309 2.14878C40.69 2.24855 40.8179 2.39113 40.8998 2.5602L43.4398 7.6802L49.1398 8.5102C49.3248 8.53651 49.4988 8.61417 49.642 8.73436C49.7852 8.85456 49.8918 9.01248 49.9498 9.1902C50.0028 9.36388 50.0076 9.54872 49.9635 9.7249C49.9195 9.90107 49.8283 10.0619 49.6998 10.1902L45.5798 14.1902L46.5798 19.8202C46.6155 20.0077 46.5968 20.2015 46.5259 20.3787C46.455 20.5559 46.3349 20.7091 46.1798 20.8202C45.9987 20.9471 45.7806 21.0104 45.5598 21.0002Z" fill="#FFC042"></path>
<path d="M73.5598 21.0002C73.3998 21.0008 73.2421 20.9631 73.0998 20.8902L67.9998 18.2202L62.8998 20.8902C62.7342 20.9773 62.5474 21.0162 62.3608 21.0024C62.1742 20.9887 61.9952 20.9228 61.8442 20.8124C61.6931 20.702 61.5761 20.5514 61.5064 20.3778C61.4367 20.2041 61.417 20.0144 61.4498 19.8302L62.4498 14.2002L58.3298 10.2002C58.2012 10.0719 58.11 9.91107 58.066 9.7349C58.0219 9.55872 58.0267 9.37388 58.0798 9.2002C58.1377 9.02248 58.2443 8.86456 58.3875 8.74436C58.5307 8.62417 58.7047 8.54651 58.8898 8.5202L64.5898 7.6902L67.0998 2.5602C67.1816 2.39113 67.3095 2.24855 67.4687 2.14878C67.6278 2.04901 67.8119 1.99609 67.9998 1.99609C68.1876 1.99609 68.3717 2.04901 68.5309 2.14878C68.69 2.24855 68.8179 2.39113 68.8998 2.5602L71.4398 7.6802L77.1398 8.5102C77.3248 8.53651 77.4988 8.61417 77.642 8.73436C77.7852 8.85456 77.8918 9.01248 77.9498 9.1902C78.0028 9.36388 78.0076 9.54872 77.9635 9.7249C77.9195 9.90107 77.8283 10.0619 77.6998 10.1902L73.5798 14.1902L74.5798 19.8202C74.6155 20.0077 74.5968 20.2015 74.5259 20.3787C74.455 20.5559 74.3349 20.7091 74.1798 20.8202C73.9987 20.9471 73.7806 21.0104 73.5598 21.0002Z" fill="#FFC042"></path>
<path d="M101.56 21.0002C101.4 21.0008 101.242 20.9631 101.1 20.8902L95.9998 18.2202L90.8998 20.8902C90.7342 20.9773 90.5474 21.0162 90.3608 21.0024C90.1742 20.9887 89.9952 20.9228 89.8442 20.8124C89.6931 20.702 89.5761 20.5514 89.5064 20.3778C89.4367 20.2041 89.417 20.0144 89.4498 19.8302L90.4498 14.2002L86.3298 10.2002C86.2012 10.0719 86.11 9.91107 86.066 9.7349C86.0219 9.55872 86.0267 9.37388 86.0798 9.2002C86.1377 9.02248 86.2443 8.86456 86.3875 8.74436C86.5307 8.62417 86.7047 8.54651 86.8898 8.5202L92.5898 7.6902L95.0998 2.5602C95.1816 2.39113 95.3095 2.24855 95.4687 2.14878C95.6278 2.04901 95.8119 1.99609 95.9998 1.99609C96.1876 1.99609 96.3717 2.04901 96.5309 2.14878C96.69 2.24855 96.8179 2.39113 96.8998 2.5602L99.4398 7.6802L105.14 8.5102C105.325 8.53651 105.499 8.61417 105.642 8.73436C105.785 8.85456 105.892 9.01248 105.95 9.1902C106.003 9.36388 106.008 9.54872 105.964 9.7249C105.919 9.90107 105.828 10.0619 105.7 10.1902L101.58 14.1902L102.58 19.8202C102.615 20.0077 102.597 20.2015 102.526 20.3787C102.455 20.5559 102.335 20.7091 102.18 20.8202C101.999 20.9471 101.781 21.0104 101.56 21.0002Z" fill="#FFC042"></path>
<path d="M129.56 21.0002C129.4 21.0008 129.242 20.9631 129.1 20.8902L124 18.2202L118.9 20.8902C118.734 20.9773 118.547 21.0162 118.361 21.0024C118.174 20.9887 117.995 20.9228 117.844 20.8124C117.693 20.702 117.576 20.5514 117.506 20.3778C117.437 20.2041 117.417 20.0144 117.45 19.8302L118.45 14.2002L114.33 10.2002C114.201 10.0719 114.11 9.91107 114.066 9.7349C114.022 9.55872 114.027 9.37388 114.08 9.2002C114.138 9.02248 114.244 8.86456 114.388 8.74436C114.531 8.62417 114.705 8.54651 114.89 8.5202L120.59 7.6902L123.1 2.5602C123.182 2.39113 123.309 2.24855 123.469 2.14878C123.628 2.04901 123.812 1.99609 124 1.99609C124.188 1.99609 124.372 2.04901 124.531 2.14878C124.69 2.24855 124.818 2.39113 124.9 2.5602L127.44 7.6802L133.14 8.5102C133.325 8.53651 133.499 8.61417 133.642 8.73436C133.785 8.85456 133.892 9.01248 133.95 9.1902C134.003 9.36388 134.008 9.54872 133.964 9.7249C133.919 9.90107 133.828 10.0619 133.7 10.1902L129.58 14.1902L130.58 19.8202C130.615 20.0077 130.597 20.2015 130.526 20.3787C130.455 20.5559 130.335 20.7091 130.18 20.8202C129.999 20.9471 129.781 21.0104 129.56 21.0002Z" fill="#FFC042"></path>
</svg>
